# xmcd
#
# Track frame offsets: 
#        182
#        11660
#        24570
#        37212
#        45965
#        57137
#        67022
#        76682
#
# Disc length: 1211 seconds
#
# Revision: 0
# Processed by: cddbd v1.5.2PL0 Copyright (c) Steve Scherf et al.
# Submitted via: ExactAudioCopy v1.1
#
DISCID=5c04b908
DTITLE=Various Artist - Hits For The Road
DYEAR=1989
DGENRE=Country
TTITLE0=Charlie Ryan - Hot Rod Lincoln
TTITLE1=Del Reeves - Girl On The Billboard
TTITLE2=Jimmy Dean - Bummin' Around
TTITLE3=Carl Smith - Go Boy Go
TTITLE4=George Jones - Six Days On The Road
TTITLE5=Red Sovine - King Of The Open Road
TTITLE6=Faron Young - King Of The Road
TTITLE7=Billy Walker - Away Out On The Mountain
EXTD=
EXTT0=
EXTT1=
EXTT2=
EXTT3=
EXTT4=
EXTT5=
EXTT6=
EXTT7=
PLAYORDER=
